<?xml version="1.0" encoding="UTF-8"?>
<svg version="1.1" xmlns="http://www.w3.org/2000/svg" width="48" height="48" viewBox="0 0 48 48">
<path d="M0,0 L14,0 L22,4 L29,12 L31,17 L31,31 L27,39 L19,46 L14,48 L0,48 L-8,44 L-15,36 L-17,31 L-17,17 L-13,9 L-5,2 Z " fill="#34BDA4" transform="translate(17,0)"/>
<path d="M0,0 L8,0 L16,4 L15,11 L14,13 L7,13 L6,17 L3,17 L3,15 L1,15 L1,13 L-5,13 L-7,11 L-7,4 Z " fill="#DBCF45" transform="translate(17,18)"/>
<path d="M0,0 L9,0 L14,3 L13,9 L8,8 L6,6 L1,6 L0,9 L-5,8 L-5,3 Z " fill="#70D6E2" transform="translate(17,20)"/>
<path d="M0,0 L3,0 L3,10 L-1,14 L-7,16 L-15,16 L-14,14 L-3,11 L-1,9 Z " fill="#098BAA" transform="translate(34,22)"/>
<path d="M0,0 L6,0 L9,2 L8,8 L3,7 L1,5 L-3,3 Z " fill="#46C8DE" transform="translate(22,21)"/>
<path d="M0,0 L4,1 L4,3 L11,3 L11,4 L4,4 L3,8 L0,8 L0,6 L-2,6 L-3,3 L-1,3 Z " fill="#7EC272" transform="translate(20,27)"/>
<path d="M0,0 L5,1 L8,4 L8,6 L5,6 L5,4 L0,2 Z " fill="#0889AA" transform="translate(29,13)"/>
<path d="M0,0 L1,0 L3,6 L6,8 L1,8 L-1,4 Z " fill="#C6D568" transform="translate(11,23)"/>
</svg>
